STARTFONT 2.1
FONTBOUNDINGBOX 12 12 0 0
COMMENT "Generated by GFX Font Editor"
STARTPROPERTIES 4
FONT_NAME weather
PIXEL_SIZE 12
FONT_ASCENT 12
FONT_DESCENT 1
ENDPROPERTIES
CHARS 10
STARTCHAR 65
ENCODING 65
DWIDTH 12 0
BBX 12 12 0 0
BITMAP
8010
4F20
1080
2040
4020
4020
4020
4020
2040
1080
4F20
8010
ENDCHAR
STARTCHAR 66
ENCODING 66
DWIDTH 12 0
BBX 10 11 2 0
BITMAP
0F00
1080
2040
2040
F040
8840
FE80
0000
0E00
1100
1FC0
ENDCHAR
STARTCHAR 67
ENCODING 67
DWIDTH 12 0
BBX 12 9 0 2
BITMAP
00E0
1910
2710
4110
40E0
8120
8010
8010
7FE0
ENDCHAR
STARTCHAR 68
ENCODING 68
DWIDTH 12 0
BBX 12 8 0 3
BITMAP
1800
2600
4100
40C0
8120
8010
8010
7FE0
ENDCHAR
STARTCHAR 69
ENCODING 69
DWIDTH 12 0
BBX 9 12 2 0
BITMAP
1800
1400
1400
2200
2200
4100
8080
8080
8080
8080
4100
3E00
ENDCHAR
STARTCHAR 70
ENCODING 70
DWIDTH 12 0
BBX 12 10 0 1
BITMAP
8000
8010
7FE0
0000
1240
1240
2480
2480
4900
4900
ENDCHAR
STARTCHAR 71
ENCODING 71
DWIDTH 12 0
BBX 7 12 2 0
BITMAP
FC
84
44
48
48
90
9E
44
28
48
50
20
ENDCHAR
STARTCHAR 72
ENCODING 72
DWIDTH 12 0
BBX 11 11 0 0
BITMAP
1100
8A20
4440
64C0
9520
1F00
9520
64C0
4440
8A20
1100
ENDCHAR
STARTCHAR 73
ENCODING 73
DWIDTH 12 0
BBX 9 7 2 1
BITMAP
EE00
0000
5B80
0000
5500
AA80
5500
ENDCHAR
STARTCHAR 74
ENCODING 74
DWIDTH 12 0
BBX 12 11 0 0
BITMAP
7800
8440
00A0
39C0
4400
0210
3120
48C0
8400
0200
0180
ENDCHAR
ENDFONT
